<svg id="Layer_1" data-name="Layer 1" xmlns="http://www.w3.org/2000/svg" viewBox="0 0 584.39 582"><defs><style>.cls-1{fill:#fff;}.cls-2{fill:#f4bd19;}.cls-3{fill:#3cbeb1;}.cls-4{fill:#e9478c;}.cls-5{fill:#2c458f;}.cls-6{fill:#95c63d;}.cls-7{fill:#176655;}</style></defs><path class="cls-1" d="M792.19,513.83c0-49.13-30.53-91.59-75.85-108.29a171.31,171.31,0,0,0,2.86-31.48,164.77,164.77,0,0,0-298.63-96.37,86.12,86.12,0,0,0-53.43-18.12,87.85,87.85,0,0,0-87.78,87.77,93.35,93.35,0,0,0,5.25,30.54c-45.79,15.74-76.8,59.63-76.8,108.28a115.39,115.39,0,0,0,76.32,108.77,168.79,168.79,0,0,0-2.86,31.49c0,90.64,73.94,164.58,164.58,164.58,53.43,0,102.57-25.76,133.58-68.69a87.68,87.68,0,0,0,141.68-69.18,93.29,93.29,0,0,0-5.25-30.53c44.85-16.22,76.33-60.11,76.33-108.77Z" transform="translate(-207.81 -209)"/><path class="cls-2" d="M436.31,459l130.24,59.64L698.21,403.16A146.92,146.92,0,0,0,433,291.05L411,404.59,436.31,459Z" transform="translate(-207.81 -209)"/><path class="cls-3" d="M301.31,596.84a151.53,151.53,0,0,0-2.86,29.58c0,81.1,66.3,147.41,147.4,147.41A148.29,148.29,0,0,0,568,709.42l21.47-113.53-29.1-55.34L429.63,480.92,301.31,596.84Z" transform="translate(-207.81 -209)"/><path class="cls-4" d="M300.35,371.2l89.21,21,20-101.62a69.44,69.44,0,0,0-42.94-14.31,70.69,70.69,0,0,0-66.31,94.94Z" transform="translate(-207.81 -209)"/><path class="cls-5" d="M292.72,392.66C252.65,405.54,225,444.18,225,486.16a98.2,98.2,0,0,0,63.45,92.08L413.89,464.7,391,415.56l-98.27-22.9Z" transform="translate(-207.81 -209)"/><path class="cls-6" d="M590.88,709a69.56,69.56,0,0,0,42.45,14.79,70.75,70.75,0,0,0,70.61-70.61,68.78,68.78,0,0,0-4.29-24.33l-89.21-21L590.88,709Z" transform="translate(-207.81 -209)"/><path class="cls-7" d="M609,584.44l98.27,22.9C747.35,594,775,555.82,775,513.83a98.68,98.68,0,0,0-63.45-92.07L582.77,534.35,609,584.44Z" transform="translate(-207.81 -209)"/></svg>